<svg id="Layer_1" data-name="Layer 1" xmlns="http://www.w3.org/2000/svg" viewBox="0 0 432 144"><title>logo</title><path d="M432,72c0,39.76-96.71,72-216,72S0,111.76,0,72,96.71,0,216,0,432,32.23,432,72Z"/><ellipse cx="216" cy="71.99" rx="192.77" ry="52.27" style="fill:none;stroke:#fff6dc;stroke-width:2.6670000000000003px"/><path d="M179.92,67.17a12.79,12.79,0,0,1-2,5.18,31.92,31.92,0,0,1-5,6l-1.6,1.42a18.45,18.45,0,0,1-1.87,1.43,27.76,27.76,0,0,1-6.25,3.3,16.4,16.4,0,0,1-5.43,1.1,8.15,8.15,0,0,1-4.33-1.1,6.45,6.45,0,0,1-2.6-3.06,4.65,4.65,0,0,1-.36-2,12.17,12.17,0,0,1,1.37-4.88A18.82,18.82,0,0,1,155,69.9a32.52,32.52,0,0,1,4.88-4.44,24.56,24.56,0,0,1,5.8-3.46,33,33,0,0,1,6.7-1.67,16.7,16.7,0,0,1,1.73-.16Q180,60.17,180,66a5.53,5.53,0,0,1-.1,1.22m-3.58-1.94a5.37,5.37,0,0,0,.27-1.55q0-2.44-3.46-2.44a5.72,5.72,0,0,0-2.42.69,25.69,25.69,0,0,0-3.79,2.48,29.06,29.06,0,0,0-3,2.77c-1.09,1.14-2.25,2.47-3.46,4l-2,2.77c-.85,1.41-1.51,2.59-2,3.54a9.73,9.73,0,0,0-.87,2.48c-.3,2.56.79,3.83,3.28,3.83a8.65,8.65,0,0,0,2-.21,7.57,7.57,0,0,0,2.38-1.17,29.9,29.9,0,0,0,3.47-2.85l1.46-1.46,1-1.06,1.18-1.55,1.37-1.7.64-.74c.31-.49.67-1.08,1.1-1.79s.79-1.34,1.09-1.91.58-1.14.82-1.72.54-1.36.91-2.4" style="fill:#fff6dc"/><path d="M210.49,42.6a4.05,4.05,0,0,1,.18,1,4.85,4.85,0,0,1-1.28,2.75L187,76.15l-.64.9a12.93,12.93,0,0,0-1.23,2.4,5.22,5.22,0,0,0-.41,1.75,1.61,1.61,0,0,0,1.83,1.54,5.73,5.73,0,0,0,2.46-.81,20.26,20.26,0,0,0,3-2l1.92-1.62,1.18-1,1.36-1.21c.68-.66,1.43-1.46,2.24-2.41l2-2.24c.37-.59.79-.87,1.28-.81l-.18.41-.09.33-.55.64-1.1,1.3-.64.82-.82.81-1.64,1.47-1.64,1.63-1,.89-1.37,1.22a48.18,48.18,0,0,1-4,2.93,21,21,0,0,1-3.38,1.71,4.43,4.43,0,0,1-1.19.33,8.7,8.7,0,0,1-1.19.08,4.84,4.84,0,0,1-3.19-1.06,3.48,3.48,0,0,1-1.28-2.84A6.54,6.54,0,0,1,179,79a17.92,17.92,0,0,1,1.56-2.84l1.1-1.54,21.9-29.09a4.17,4.17,0,0,0,1.08-2,2.39,2.39,0,0,0-.36-.89h6.19" style="fill:#fff6dc"/><path d="M226.36,67.17a12.84,12.84,0,0,1-2,5.18,31.78,31.78,0,0,1-5,6l-1.6,1.42a19.55,19.55,0,0,1-1.87,1.43,27.88,27.88,0,0,1-6.25,3.3,16.36,16.36,0,0,1-5.43,1.1,8.12,8.12,0,0,1-4.34-1.1,6.47,6.47,0,0,1-2.6-3.06,4.65,4.65,0,0,1-.36-2,12.14,12.14,0,0,1,1.37-4.88,18.81,18.81,0,0,1,3.14-4.6,32.66,32.66,0,0,1,4.88-4.44,24.61,24.61,0,0,1,5.8-3.46,33.15,33.15,0,0,1,6.7-1.67,16.84,16.84,0,0,1,1.74-.16q5.92,0,5.93,5.78a5.86,5.86,0,0,1-.1,1.22m-3.58-1.94a5.36,5.36,0,0,0,.28-1.55c0-1.63-1.16-2.44-3.47-2.44a5.71,5.71,0,0,0-2.42.69,25.53,25.53,0,0,0-3.79,2.48,29.68,29.68,0,0,0-3,2.77c-1.1,1.14-2.25,2.47-3.47,4l-2,2.77c-.85,1.41-1.51,2.59-2,3.54a10.19,10.19,0,0,0-.87,2.48c-.3,2.56.79,3.83,3.28,3.83a8.78,8.78,0,0,0,2-.21,7.6,7.6,0,0,0,2.37-1.17,29.65,29.65,0,0,0,3.47-2.85l1.46-1.46,1-1.06,1.19-1.55,1.37-1.7.64-.74,1.1-1.79c.43-.71.79-1.34,1.09-1.91s.57-1.14.81-1.72.55-1.36.92-2.4" style="fill:#fff6dc"/><path d="M264.8,71.18l-.64.73-1,1.22-.73.82L261.33,75l-1.46,1.48a37.41,37.41,0,0,1-4.1,3.74c-1,.71-1.7,1.22-2.19,1.55a15.51,15.51,0,0,1-1.92,1.06A25.4,25.4,0,0,1,248,84.61a8.18,8.18,0,0,1-2.65.4,3.75,3.75,0,0,1-2.74-1,3.26,3.26,0,0,1-1-2.44,5,5,0,0,1,.36-1.71A15.11,15.11,0,0,1,243.68,77a46.58,46.58,0,0,1,4.17-4.93l1.37-1.63q1.73-2.11,3.07-3.87a5.35,5.35,0,0,0,1.32-2.65q0-1.71-1.92-1.7a5.15,5.15,0,0,0-1,.16,14,14,0,0,0-5.3,2.52l-1.46,1-1,.9L241.44,68l-1.65,1.3L228.35,84.44l-6.35,0,16-21.1a3.09,3.09,0,0,0,.73-2.51h6.39a4.29,4.29,0,0,1-.23,1.46,3.53,3.53,0,0,1-.87,1.31l-3.46,4,3.11-2.36,2.64-1.95.46-.33,1.46-.89a15.74,15.74,0,0,1,6-1.95,4.7,4.7,0,0,1,3.84.9,3.09,3.09,0,0,1,1.19,3A8.29,8.29,0,0,1,258,67.09a39.76,39.76,0,0,1-2.51,3.46l-2,2.28L251,75.68a39.13,39.13,0,0,0-2.79,3.83,3.43,3.43,0,0,0-.5,2c0,.82.49,1.22,1.46,1.22a2.51,2.51,0,0,0,1-.24,14.71,14.71,0,0,0,2.28-.94c.54-.3,1.52-.94,2.92-1.92.48-.38,1-.79,1.46-1.22.73-.6,1.51-1.34,2.37-2.2l1.55-1.63,1-.9c.3-.38.63-.79,1-1.22a4.07,4.07,0,0,0,.64-.9c.49-.54.85-.79,1.1-.73l.27.41" style="fill:#fff6dc"/><path d="M281.74,70.85l-.09.4-.46.66-.18.16-1.19,1.31-.64.81-.91.91-1.63,1.46-1.56,1.56-1,.9L273,80.06a30.34,30.34,0,0,1-5.75,4.08,9.44,9.44,0,0,1-4.1,1.06,4.54,4.54,0,0,1-3.28-1.14,3.83,3.83,0,0,1-1.18-2.86,5.92,5.92,0,0,1,.22-1.27,10.39,10.39,0,0,1,.5-1.51,24.39,24.39,0,0,1,1.35-2.21l.82-.92,7.88-10.63a5.54,5.54,0,0,0,1.31-2.77V60.82h6.46a7,7,0,0,1,.18,1,5.13,5.13,0,0,1-1.56,2.86L266.6,76.88,265.79,78a7,7,0,0,0-1,2,6.41,6.41,0,0,0-.27,1.75,1.21,1.21,0,0,0,1.37,1.38,4.42,4.42,0,0,0,1.46-.49c.55-.27,1-.49,1.41-.66a6.46,6.46,0,0,0,1.51-1q.27-.16,1.82-1.47l1.28-.9,1.37-1.14,1.46-1.3.82-.9,1.55-1.55a13.61,13.61,0,0,0,1.91-2.28l.55-.65.36-.17.37.17m1.73-20a4.44,4.44,0,0,1-.73,2.08,7,7,0,0,1-2.37,2.32,10.2,10.2,0,0,1-1.14.53,3.8,3.8,0,0,1-1.5.29A2.53,2.53,0,0,1,275,54.3a3.88,3.88,0,0,1-.18-.89c0-1.25.73-2.4,2.19-3.47a6.89,6.89,0,0,1,3.83-1.59c1.76,0,2.65.82,2.65,2.45" style="fill:#fff6dc"/><path d="M315.18,70.85v.4l-.28.49-.37.32L313,73.78l-.27.4-1.1,1-1.37,1.3-1.38,1.3-.83.9-1.83,1.54c-.92.77-1.7,1.4-2.34,1.88s-1.12.85-1.42,1.06q-3,2-4.77,2a4.19,4.19,0,0,1-3.22-.9,3.88,3.88,0,0,1-1.18-3V79.56l.64-2-1.36,1.23-1.71,1.47-1.36,1.22a19.06,19.06,0,0,1-5.79,3.35,7.86,7.86,0,0,1-1.89.25,5.25,5.25,0,0,1-3.67-1.27,4.53,4.53,0,0,1-1.39-3.54,13.15,13.15,0,0,1,2.83-7.91q3.28-4.49,10.22-8.56a40.49,40.49,0,0,1,4.38-2.12,15.93,15.93,0,0,1,3.56-1.1,14.9,14.9,0,0,1,1.91-.2,5.71,5.71,0,0,1,3.61,1,2.46,2.46,0,0,1,1,2.36l2.2-2.94h6.11L300.2,77.11l-.72,1.14c-.3.54-.57,1-.78,1.51a3.55,3.55,0,0,0-.32,1.51A1.62,1.62,0,0,0,300,83.06a8.36,8.36,0,0,0,2.46-.89,9.21,9.21,0,0,0,1.37-.89A14.79,14.79,0,0,0,305.41,80l1.83-1.62,2-1.87.36-.32.91-.9L312,73.77l1.92-2.28.54-.65.46-.17.28.17m-12.7-6.29a3.86,3.86,0,0,0,.09-1c0-1.52-.9-2.29-2.72-2.29a7,7,0,0,0-3.76,1.35,51,51,0,0,0-6.2,5.34l-1.45,1.46-.72.74-1.63,2.12q-.9,1.05-1.85,2.4a15.07,15.07,0,0,0-1,1.59,11.38,11.38,0,0,0-1,2.25A3.71,3.71,0,0,0,282,80c.18,1.58,1.14,2.36,2.88,2.36a5.86,5.86,0,0,0,1.93-.32,10,10,0,0,0,2.44-1.43,40.09,40.09,0,0,0,4-3.63l1.27-1.3c.68-.76,1.1-1.25,1.28-1.47a8.15,8.15,0,0,0,1.1-1.46l1.64-2.2,1-1.31c1.34-1.79,2.16-2.92,2.47-3.38a2.47,2.47,0,0,0,.45-1.34" style="fill:#fff6dc"/><path d="M340.5,42.6a4.07,4.07,0,0,1,.18,1,4.83,4.83,0,0,1-1.28,2.75L317,76.15l-.64.9a13.48,13.48,0,0,0-1.24,2.4,5.27,5.27,0,0,0-.4,1.75,1.6,1.6,0,0,0,1.82,1.54,5.75,5.75,0,0,0,2.46-.81,20.27,20.27,0,0,0,3-2l1.91-1.62,1.19-1,1.37-1.21c.67-.66,1.41-1.46,2.24-2.41s1.47-1.7,2-2.24a1.34,1.34,0,0,1,1.28-.81l-.18.41-.09.33-.55.64L330,73.36l-.64.82-.82.81-1.64,1.47-1.64,1.63-1,.89-1.37,1.22a47.78,47.78,0,0,1-4,2.93,20.41,20.41,0,0,1-3.37,1.71,4.36,4.36,0,0,1-1.18.33,8.76,8.76,0,0,1-1.19.08,4.84,4.84,0,0,1-3.19-1.06,3.49,3.49,0,0,1-1.28-2.84A6.88,6.88,0,0,1,309,79a17.87,17.87,0,0,1,1.56-2.84l1.1-1.54,21.89-29.09a4.14,4.14,0,0,0,1.07-2,2.35,2.35,0,0,0-.35-.89h6.2" style="fill:#fff6dc"/><path d="M161.81,46.45a18.46,18.46,0,0,1-3.54,8.12,40.79,40.79,0,0,1-11.06,10.82q-6.38,4.18-12.19,4.17h-1.14a10.3,10.3,0,0,1-6.57-1.91,5.89,5.89,0,0,1-2.4-4.82,5.15,5.15,0,0,1,.25-1.79,19.76,19.76,0,0,1,1.71-3.53,13.82,13.82,0,0,1,2.59-3,16.79,16.79,0,0,1,7.1-3.81l2.66-.79q2.28-.67,2.53,0c.25.21.17.46-.25.75h-1.89a11.35,11.35,0,0,0-9.23,6.89,7.23,7.23,0,0,0-.76,3.1q0,5.17,6.94,6.08h1.52a17.3,17.3,0,0,0,8.84-2.6,24.86,24.86,0,0,0,7.83-7.57,17.25,17.25,0,0,0,2.65-5.14,16.64,16.64,0,0,0,.88-5,12.2,12.2,0,0,0-.76-5,8.28,8.28,0,0,0-2.91-3q-3-2-8.47-2a35.81,35.81,0,0,0-15,3.62,57.4,57.4,0,0,0-16.81,12.2,52.77,52.77,0,0,0-6.07,7.46c-1.35,2.11-2.55,4.13-3.61,6a34.7,34.7,0,0,0-2.46,5.48A32.45,32.45,0,0,0,100,81.72q0,7.24,4.49,11.13t12.21,3.91a36.7,36.7,0,0,0,11.06-1.58,59,59,0,0,0,12.21-6,45.41,45.41,0,0,0,8.35-6.91l1.14-1.47,1.26-1.47,1.77-2.61,1-2a1.16,1.16,0,0,1,.63-.45l.88.34q.13.79-1.26,2.71l-1.52,2.26-.38.34-1,1.36-1.27,1.58a58.75,58.75,0,0,1-17.84,14.13,65,65,0,0,1-8.16,3.33,39.09,39.09,0,0,1-7,1.69,39.89,39.89,0,0,1-5.25.4q-8.6,0-13.73-3.9a16.38,16.38,0,0,1-6.27-10.89c-.08-.75-.14-1.42-.19-2s-.06-1-.06-1.41q0-7.78,5-16.54T111.36,50.2A73.44,73.44,0,0,1,121.22,43a71.23,71.23,0,0,1,10.12-5.25,84.92,84.92,0,0,1,10.37-3.5A32.58,32.58,0,0,1,149.55,33a23.42,23.42,0,0,1,2.65.22q9.85,1.8,9.86,10.49a9,9,0,0,1-.13,1.47,7.82,7.82,0,0,0-.12,1.24" style="fill:#fff6dc"/><path d="M148.42,97.54v-.91c0-1.82.38-3,1.16-3.67s2.22-.95,4.34-.95H158c2.84,0,4.27,1,4.27,2.85H161a1.51,1.51,0,0,0-.65-1.34A4.52,4.52,0,0,0,158,93h-4.22c-1.69,0-2.8.22-3.32.66s-.79,1.4-.79,2.91v.92c0,1.55.23,2.53.69,2.94s1.49.63,3.11.63H158a4.89,4.89,0,0,0,2.37-.42A1.48,1.48,0,0,0,161,99.3h1.23a2.47,2.47,0,0,1-1,2.15,5.87,5.87,0,0,1-3.27.68h-4.43c-2.06,0-3.43-.3-4.12-.9s-1-1.83-1-3.69" style="fill:#fff6dc"/><path d="M171,102.13c-2.47,0-4.08-.28-4.83-.87S165,99.44,165,97.54v-.86c0-1.92.37-3.16,1.12-3.75s2.37-.87,4.84-.87h1.87q3.69,0,4.81.87c.75.59,1.12,1.83,1.12,3.75v.86c0,1.9-.37,3.14-1.12,3.72s-2.35.87-4.81.87H171m6.59-4.59v-.86c0-1.61-.26-2.61-.78-3s-1.84-.57-4-.57H171c-2.13,0-3.46.19-4,.57s-.78,1.39-.78,3v.86c0,1.6.26,2.58.78,3s1.84.58,4,.58h1.85c2.13,0,3.46-.19,4-.58s.77-1.36.77-3" style="fill:#fff6dc"/><path d="M187.58,101.08h1.81c2.13,0,3.45-.19,4-.57s.77-1.37.77-3V92.1h1.22v5.43c0,1.91-.38,3.15-1.12,3.73s-2.35.87-4.81.87h-1.83c-2.48,0-4.09-.29-4.85-.87s-1.13-1.83-1.13-3.74V92.1h1.23v5.44c0,1.6.26,2.58.78,3s1.85.58,4,.58" style="fill:#fff6dc"/><polygon points="198.18 92.1 200.88 92.1 209.96 101.1 209.96 92.1 211.18 92.1 211.18 102.13 209.41 102.13 200.06 92.89 199.39 92.89 199.39 102.13 198.18 102.13 198.18 92.1" style="fill:#fff6dc"/><polygon points="226.2 92.1 226.2 93.14 220.44 93.14 220.44 102.13 219.21 102.13 219.21 93.14 213.46 93.14 213.46 92.1 226.2 92.1" style="fill:#fff6dc"/><polygon points="228.57 92.1 239.04 92.1 239.04 93.14 229.8 93.14 229.8 96.44 238.75 96.44 238.75 97.48 229.8 97.48 229.8 101.1 239.04 101.1 239.04 102.13 228.57 102.13 228.57 92.1" style="fill:#fff6dc"/><path d="M254.81,94.71a2.65,2.65,0,0,1-.32,1.44,1.54,1.54,0,0,1-.79.54,1.89,1.89,0,0,1,1.13.64,2.74,2.74,0,0,1,.59,1.85v3h-1.32V99.2a1.54,1.54,0,0,0-.52-1.35,3.72,3.72,0,0,0-2-.37h-8.11v4.66H242.2v-10h8.65a5.54,5.54,0,0,1,3,.63,2.2,2.2,0,0,1,.94,2m-11.36,1.64h7.63A3.59,3.59,0,0,0,253,96a1.32,1.32,0,0,0,.57-1.17,1.36,1.36,0,0,0-.57-1.17,3.18,3.18,0,0,0-1.83-.42h-7.73Z" style="fill:#fff6dc"/><polygon points="270.36 92.1 270.36 93.14 264.6 93.14 264.6 102.13 263.37 102.13 263.37 93.14 257.62 93.14 257.62 92.1 270.36 92.1" style="fill:#fff6dc"/><path d="M278.58,102.13c-2.47,0-4.07-.28-4.83-.87s-1.14-1.82-1.14-3.73v-.86c0-1.92.38-3.16,1.13-3.75s2.37-.87,4.84-.87h1.88c2.46,0,4.06.29,4.8.87s1.13,1.83,1.13,3.75v.86q0,2.85-1.12,3.72c-.74.58-2.35.87-4.8.87h-1.88m6.59-4.59v-.86c0-1.61-.25-2.61-.77-3s-1.84-.57-4-.57h-1.86c-2.13,0-3.46.19-4,.57s-.77,1.39-.77,3v.86c0,1.6.26,2.58.77,3s1.84.58,4,.58h1.86c2.13,0,3.45-.19,4-.58s.76-1.36.76-3" style="fill:#fff6dc"/><path d="M301.28,94.68v.58a2.18,2.18,0,0,1-1,1.92,5.44,5.44,0,0,1-3,.66h-6.86v4.3h-1.31v-10h8.16a5.39,5.39,0,0,1,3,.67,2.18,2.18,0,0,1,1,1.92m-10.83-1.54v3.66h6.79a4.31,4.31,0,0,0,2.12-.37,1.35,1.35,0,0,0,.59-1.2v-.5a1.31,1.31,0,0,0-.54-1.17,4.26,4.26,0,0,0-2.17-.4Z" style="fill:#fff6dc"/><path d="M307.52,92.1h6.19c2.67,0,4,1,4,2.84h-1.23a1.47,1.47,0,0,0-.64-1.33,4.52,4.52,0,0,0-2.39-.48h-6a3.09,3.09,0,0,0-1.87.42,1.55,1.55,0,0,0-.45,1.25,1.31,1.31,0,0,0,.65,1.29,7.9,7.9,0,0,0,2.87.33l3.64.07a10.4,10.4,0,0,1,4.34.62,2.27,2.27,0,0,1,1.15,2.19,2.49,2.49,0,0,1-.9,2.19,5.29,5.29,0,0,1-3,.64h-6.06a4.91,4.91,0,0,1-2.84-.71,2.44,2.44,0,0,1-1-2.14h1.23a1.49,1.49,0,0,0,.63,1.33,4.4,4.4,0,0,0,2.39.49h5.6a4,4,0,0,0,2.07-.41,1.52,1.52,0,0,0,.64-1.42,1.34,1.34,0,0,0-.72-1.34,8.26,8.26,0,0,0-3.21-.41l-4.12-.08a7.67,7.67,0,0,1-3.75-.64,2.21,2.21,0,0,1-.86-2,2.37,2.37,0,0,1,.88-2.05,4.64,4.64,0,0,1,2.72-.64" style="fill:#fff6dc"/><polygon points="225.42 19.74 216 28.14 206.59 19.74 216 11.33 225.42 19.74" style="fill:#fff6dc"/><polygon points="225.42 124.26 216 132.66 206.59 124.26 216 115.85 225.42 124.26" style="fill:#fff6dc"/></svg>