<?xml version="1.0" encoding="utf-8"?>
<!-- Generator: Adobe Illustrator 26.0.2, SVG Export Plug-In . SVG Version: 6.00 Build 0)  -->
<svg version="1.1" id="Layer_1" xmlns="http://www.w3.org/2000/svg" xmlns:xlink="http://www.w3.org/1999/xlink" x="0px" y="0px"
	 viewBox="0 0 1581.6 799.3" style="enable-background:new 0 0 1581.6 799.3;" xml:space="preserve">
<style type="text/css">
	.st0{fill:#051C2C;}
	.st1{fill:#FFBC00;}
	.st2{fill:#FFFFFF;}
</style>
<path class="st0" d="M112.9,678.5c-66.9,0-93.3-38.2-82-101.9l29.7-168.2H0l11.6-65.6H72l18.3-103.9H170l-18.3,103.9h83.5
	l-11.6,65.6h-83.5l-28.4,161.2c-4.5,25.5,5.1,36.3,30.5,36.3c17.4,0,34.9-1,52.2-3.2l-11.8,66.9
	C159.8,675.4,136.4,678.3,112.9,678.5"/>
<polygon class="st0" points="226.3,672.2 284.4,342.8 364.9,342.8 306.8,672.2 "/>
<path class="st0" d="M1300.1,678.5c-66.9,0-93.3-38.2-82-101.9l29.6-168.2h-60.5l11.6-65.6h60.5l18.3-103.9h79.7l-18.3,103.9h83.5
	l-11.6,65.6h-83.5l-28.4,161.2c-4.5,25.5,5.1,36.3,30.5,36.3c17.4,0,34.9-1,52.2-3.2l-11.8,66.9
	C1347,675.4,1323.6,678.3,1300.1,678.5"/>
<polygon class="st0" points="1413.6,672.2 1471.6,342.8 1552.1,342.8 1494,672.2 "/>
<path class="st1" d="M1578.1,185.5c1.2,34.9-26.1,64.1-61,65.2c-11.3,0.4-22.5-2.3-32.4-7.7c-1.1-0.7-2.2-1.3-3.3-1.9
	c-0.1-0.1-0.1-0.1-0.2-0.1c-166.2-97.7-361.1-151-568-144.1c-212,7-407.3,76.3-569,189.7c-0.8,0.6-1.7,1.1-2.5,1.7
	c-1.5,0.8-3.1,1.2-4.8,1.2c-6.3,0.2-11.6-4.7-11.8-11.1c-0.1-2,0.4-4.1,1.4-5.8c1.9-1.7,3.8-3.4,5.7-5.1
	C509.8,108.8,742,9.1,998.7,0.6c196.1-6.5,381.5,41.1,541.8,129.2c0.1,0,0.1,0,0.2,0.1c1.5,0.8,3,1.6,4.5,2.4
	c6.7,3.6,12.8,8.4,17.8,14.2C1572.3,157.4,1577.6,171.2,1578.1,185.5"/>
<path class="st0" d="M906.6,526.9l-84.7,6.3c-24.4,1.9-50.4,16.5-55.1,43.1c-4.5,25.3,14.9,41.2,39.6,41.2
	c49.4,0,88.9-26.6,97.5-75.4L906.6,526.9z M946.4,678.2c-34.2,0-49.4-21.5-47.6-46.2c-19.9,26.6-61.9,49.4-108.8,49.4
	c-78.6,0-110.4-49.4-100.9-103.3c11.1-62.7,66.2-98.8,129.7-103.3l98.2-7l3.6-20.3c5.5-31-1.6-52-46.6-52
	c-36.7,0-61.2,16.5-68.5,46.9h-76.6c17.5-74.1,82.2-107.1,155.7-107.1c56.4,0,101.4,17.7,111.7,67.1c4.6,20.9,1.7,44.3-2.2,66.5
	l-21.6,122.3c-2.7,15.2,1.4,20.9,14.7,20.9c3.5-0.1,7-0.5,10.4-1.3l-10.3,58.3C973,675.1,965.4,678.2,946.4,678.2"/>
<path class="st0" d="M1111.8,676.6c-53.8,0-85.4-26-74.3-88.7l61.4-349.1h79.8l-59.1,335.8c-3.4,19-1.2,31.7,26,31.7
	c7,0,9-0.6,13.4-0.6l-11.7,66.5C1130.9,675.3,1127.6,676.6,1111.8,676.6"/>
<path class="st0" d="M597.5,428.7c-8.8-14.6-24-26-48.6-26c-62.1,0-85.1,58.9-93.5,106.4s-6,105.8,56.1,105.8
	c24.7,0,43.8-11.5,57.8-26c20.3-21.5,30-51.3,35-79.8C609.2,480.7,610.1,450.3,597.5,428.7 M600,655c-23.2,16.5-51.5,26.6-85.1,26.6
	c-39.3,0-68.5-13.9-80.4-32.3l-26.5,150h-79.2l80.3-455.2h73.9l-6.8,36.1c25-30.4,64-43.7,100.1-43.7c32.9,0,57.5,11.4,74.9,27.9
	c33.6,32.3,44.5,81.7,33.5,143.7C673.4,572.7,644.9,622.7,600,655"/>
</svg>
